<?xml version="1.0" encoding="UTF-8"?>
<svg id="b" xmlns="http://www.w3.org/2000/svg" width="128" height="128" viewBox="0 0 128 128">
  <path d="M22.36,105.125c7.29-10.975,12.241-22.723,13.37-33.878l30.237-11.735-30.717-16.764c-3.063-15.508-8.91-22.21-8.91-22.21,0,0,73.042-3.039,78.898,84.4" fill="#000" stroke="#000" stroke-linecap="round" stroke-linejoin="round" stroke-width="27"/>
  <path d="M22.36,105.125c7.29-10.975,12.241-22.723,13.37-33.878l30.237-11.735-30.717-16.764c-3.063-15.764-8.91-22.21-8.91-22.21,0,0,73.042-3.039,78.898,84.4" fill="#0071ff" stroke="#0071ff" stroke-linecap="round" stroke-linejoin="round" stroke-width="13"/>
  <path d="M26.34,20.538s73.042-3.039,78.898,84.4" fill="none" stroke="#2cb4ff" stroke-linecap="round" stroke-linejoin="round" stroke-width="13"/>
  <path d="M114.5,107.475c-6.601,0-13.201-3.987-16.833-11.962h0s0,0,0,0c-7.265,15.949-26.402,15.949-33.667,0h0s0,0,0,0c-7.265,15.949-26.402,15.949-33.667,0h0s0,0,0,0c-3.632,7.975-10.233,11.962-16.833,11.962" fill="none" stroke="#000" stroke-linecap="round" stroke-linejoin="round" stroke-width="27"/>
  <path d="M97.887,100.342c-6.674.088-13.381-3.799-17.054-11.659h0s0,0,0,0c-7.265,15.547-26.402,15.547-33.667,0h0s0,0,0,0c-3.632,7.773-10.233,11.66-16.833,11.66h67.554Z" fill="none" stroke="#000" stroke-linecap="round" stroke-linejoin="round" stroke-width="27"/>
  <path d="M97.887,100.342c-6.674.088-13.381-3.799-17.054-11.659h0s0,0,0,0c-7.265,15.547-26.402,15.547-33.667,0h0s0,0,0,0c-3.632,7.773-10.233,11.66-16.833,11.66h67.554Z" fill="none" stroke="#9ea4a8" stroke-linecap="round" stroke-linejoin="round" stroke-width="13"/>
  <path d="M114.5,107.475c-6.601,0-13.201-3.987-16.833-11.962h0s0,0,0,0c-7.265,15.949-26.402,15.949-33.667,0h0s0,0,0,0c-7.265,15.949-26.402,15.949-33.667,0h0s0,0,0,0c-3.632,7.975-10.233,11.962-16.833,11.962" fill="none" stroke="#d9dbdd" stroke-linecap="round" stroke-linejoin="round" stroke-width="13"/>
  <path d="M22.159,105.125c7.29-10.975,12.241-22.723,13.37-33.878l30.237-11.735-30.717-16.764c-3.063-15.508-8.91-22.21-8.91-22.21,0,0,73.042-3.039,78.898,84.4" fill="#000" stroke="#000" stroke-linecap="round" stroke-linejoin="round" stroke-width="27"/>
  <path d="M22.159,105.125c7.29-10.975,12.241-22.723,13.37-33.878l30.237-11.735-30.717-16.764c-3.063-15.764-8.91-22.21-8.91-22.21,0,0,73.042-3.039,78.898,84.4" fill="#0071ff" stroke="#0071ff" stroke-linecap="round" stroke-linejoin="round" stroke-width="13"/>
  <path d="M26.139,20.538s73.042-3.039,78.898,84.4" fill="none" stroke="#2cb4ff" stroke-linecap="round" stroke-linejoin="round" stroke-width="13"/>
  <path d="M114.299,107.475c-6.601,0-13.201-3.987-16.833-11.962h0s0,0,0,0c-7.265,15.949-26.402,15.949-33.667,0h0s0,0,0,0c-7.265,15.949-26.402,15.949-33.667,0h0s0,0,0,0c-3.632,7.975-10.233,11.962-16.833,11.962" fill="none" stroke="#000" stroke-linecap="round" stroke-linejoin="round" stroke-width="27"/>
  <path d="M114.299,107.475c-6.601,0-13.201-3.987-16.833-11.962h0s0,0,0,0c-7.265,15.949-26.402,15.949-33.667,0h0s0,0,0,0c-7.265,15.949-26.402,15.949-33.667,0h0s0,0,0,0c-3.632,7.975-10.233,11.962-16.833,11.962" fill="none" stroke="#d9dbdd" stroke-linecap="round" stroke-linejoin="round" stroke-width="13"/>
</svg>